<svg width="399" height="320" viewBox="0 0 399 320" fill="none" xmlns="http://www.w3.org/2000/svg">
<circle cx="208.978" cy="164.949" r="154.252" stroke="#DADCE8" stroke-width="1.59847" stroke-opacity="0.375"/>
<circle cx="208.978" cy="164.948" r="120.684" stroke="#DADCE8" stroke-width="1.59847" stroke-opacity="0.575"/>
<circle cx="208.514" cy="164.514" r="88.715" stroke="#DADCE8" stroke-width="1.59847"/>
<path d="M10.0776 199.829L75.2185 237.438L140.359 199.829V124.61L75.2185 87.0029L10.0776 124.612V199.829Z" fill="url(#paint0_linear)"/>
<path d="M68.4943 96.0615L21.265 123.33C21.3594 124.169 21.3594 125.015 21.265 125.854L68.4973 153.123C72.4798 150.184 77.9123 150.184 81.8948 153.123L129.127 125.854C129.033 125.015 129.032 124.169 129.127 123.33L81.8974 96.0617C77.9149 99.0002 72.4821 99.0002 68.4993 96.0617L68.4943 96.0615ZM133.662 133.386L86.3794 160.959C86.933 165.877 84.2166 170.582 79.6805 172.561L79.7336 226.796C80.5071 227.133 81.24 227.556 81.9191 228.057L129.151 200.789C128.598 195.871 131.314 191.166 135.85 189.186V134.649C135.077 134.311 134.344 133.888 133.664 133.387L133.662 133.386ZM16.7753 133.689C16.0962 134.19 15.3634 134.614 14.5899 134.951V189.488C19.1259 191.468 21.8423 196.173 21.2888 201.091L68.5181 228.36C69.1972 227.858 69.9305 227.435 70.704 227.097V172.561C66.1679 170.581 63.4515 165.876 64.0051 160.958L16.7757 133.688L16.7753 133.689Z" fill="url(#paint1_linear)"/>
<path d="M75.2191 237.438L140.36 199.829V124.61L75.2191 162.219V237.438Z" fill="black" fill-opacity="0.25098"/>
<path d="M75.2191 237.438V162.219L10.0782 124.61V199.829L75.2191 237.438Z" fill="black" fill-opacity="0.039216"/>
<path d="M10.0776 124.61L75.2185 162.219L140.359 124.61L75.2185 87L10.0776 124.61Z" fill="black" fill-opacity="0.13018"/>
<path fill-rule="evenodd" clip-rule="evenodd" d="M391.865 124.748L395.266 116.41C395.266 116.41 390.937 111.777 385.681 106.527C380.425 101.277 369.295 104.365 369.295 104.365L356.618 90H334.358H312.097L299.42 104.365C299.42 104.365 288.29 101.277 283.034 106.527C277.778 111.777 273.449 116.41 273.449 116.41L276.85 124.748L272.522 137.101C272.522 137.101 285.252 185.265 286.744 191.147C289.681 202.728 291.691 207.206 300.039 213.074C308.386 218.942 323.536 229.133 326.01 230.677C328.483 232.221 331.575 234.852 334.358 234.852C337.14 234.852 340.232 232.221 342.705 230.677C345.179 229.133 360.329 218.942 368.676 213.074C377.024 207.206 379.034 202.728 381.971 191.147C383.463 185.265 396.193 137.101 396.193 137.101L391.865 124.748Z" fill="url(#paint2_linear)"/>
<path fill-rule="evenodd" clip-rule="evenodd" d="M350.126 116.101C351.981 116.101 365.739 113.476 365.739 113.476C365.739 113.476 382.044 133.164 382.044 137.372C382.044 140.851 380.642 142.212 378.991 143.816C378.645 144.152 378.288 144.499 377.931 144.877C375.869 147.065 366.862 156.618 365.705 157.845C365.584 157.973 365.449 158.109 365.306 158.252C364.086 159.478 362.289 161.283 363.557 164.28C363.642 164.48 363.729 164.684 363.817 164.891C365.208 168.138 366.924 172.147 364.739 176.21C362.416 180.531 358.435 183.415 355.884 182.938C353.333 182.461 347.343 179.334 345.14 177.906C342.937 176.477 335.955 170.726 335.955 168.525C335.955 166.69 340.977 163.636 343.416 162.153C343.901 161.857 344.285 161.624 344.506 161.475C344.758 161.306 345.179 161.045 345.697 160.723C347.924 159.341 351.945 156.846 352.046 155.74C352.17 154.375 352.123 153.976 350.328 150.606C349.946 149.889 349.5 149.121 349.038 148.328C347.329 145.391 345.415 142.102 345.839 139.746C346.317 137.086 350.489 135.561 354.023 134.27C354.465 134.108 354.896 133.951 355.31 133.795C356.341 133.406 357.637 132.921 358.991 132.414C362.519 131.094 366.439 129.627 367.086 129.33C367.981 128.917 367.75 128.525 365.039 128.268C364.68 128.234 364.235 128.187 363.723 128.133C360.367 127.776 354.179 127.119 351.17 127.957C350.579 128.122 349.915 128.301 349.22 128.489C345.84 129.404 341.697 130.524 341.299 131.17C341.23 131.283 341.161 131.38 341.097 131.472C340.716 132.013 340.468 132.365 340.889 134.662C341.014 135.346 341.272 136.692 341.591 138.355C342.525 143.226 343.981 150.824 344.165 152.531C344.19 152.77 344.219 153.001 344.246 153.223C344.479 155.127 344.635 156.394 342.421 156.9C342.237 156.942 342.043 156.986 341.842 157.032C339.343 157.605 335.681 158.445 334.358 158.445C333.034 158.445 329.368 157.604 326.87 157.032C326.67 156.986 326.477 156.942 326.294 156.9C324.08 156.394 324.235 155.127 324.469 153.223C324.496 153.001 324.524 152.77 324.55 152.531C324.734 150.822 326.194 143.205 327.128 138.335C327.445 136.681 327.701 135.343 327.826 134.662C328.247 132.365 327.999 132.013 327.618 131.472C327.554 131.38 327.485 131.283 327.416 131.17C327.018 130.524 322.876 129.404 319.496 128.49C318.8 128.301 318.136 128.122 317.544 127.957C314.536 127.12 308.348 127.776 304.993 128.132C304.481 128.187 304.035 128.234 303.676 128.268C300.966 128.525 300.734 128.917 301.629 129.33C302.276 129.627 306.194 131.093 309.721 132.413C311.076 132.92 312.373 133.405 313.405 133.795C313.819 133.951 314.251 134.109 314.693 134.27C318.226 135.562 322.398 137.086 322.876 139.746C323.3 142.102 321.386 145.39 319.678 148.327C319.216 149.121 318.769 149.889 318.387 150.606C316.592 153.976 316.545 154.375 316.669 155.74C316.77 156.846 320.789 159.34 323.016 160.722C323.535 161.044 323.957 161.306 324.209 161.475C324.43 161.624 324.813 161.857 325.298 162.152C327.737 163.635 332.759 166.689 332.759 168.525C332.759 170.726 325.778 176.477 323.575 177.906C321.372 179.334 315.382 182.461 312.831 182.938C310.28 183.415 306.299 180.531 303.976 176.21C301.791 172.147 303.507 168.139 304.897 164.891C304.986 164.684 305.073 164.481 305.158 164.28C306.426 161.282 304.629 159.478 303.408 158.252C303.265 158.109 303.131 157.973 303.01 157.845C302.341 157.135 299.044 153.639 295.985 150.394C293.756 148.03 291.653 145.799 290.784 144.877C290.427 144.499 290.07 144.152 289.724 143.816C288.073 142.212 286.671 140.851 286.671 137.372C286.671 133.164 302.976 113.476 302.976 113.476C302.976 113.476 316.734 116.101 318.589 116.101C320.07 116.101 322.928 115.118 325.908 114.093C326.662 113.833 327.424 113.571 328.174 113.321C331.884 112.086 334.358 112.077 334.358 112.077C334.358 112.077 336.831 112.086 340.541 113.321C341.291 113.571 342.053 113.833 342.807 114.093C345.787 115.118 348.645 116.101 350.126 116.101ZM347.764 185.739C350.673 187.236 352.736 188.298 353.516 188.786C354.525 189.417 353.91 190.607 352.99 191.256C352.071 191.906 339.716 201.462 338.517 202.518C338.363 202.653 338.201 202.8 338.031 202.953C336.876 203.993 335.402 205.319 334.357 205.319C333.312 205.319 331.838 203.992 330.682 202.951C330.513 202.799 330.351 202.653 330.198 202.518C328.999 201.462 316.644 191.906 315.724 191.256C314.805 190.607 314.19 189.417 315.199 188.786C315.98 188.298 318.045 187.235 320.956 185.737C321.81 185.297 322.736 184.821 323.723 184.31C328.08 182.058 333.51 180.143 334.357 180.143C335.205 180.143 340.635 182.058 344.992 184.31C345.982 184.822 346.909 185.299 347.764 185.739Z" fill="white"/>
<path fill-rule="evenodd" clip-rule="evenodd" d="M369.295 104.365L356.618 90H334.358H312.097L299.42 104.365C299.42 104.365 288.29 101.277 283.034 106.527C283.034 106.527 297.874 105.189 302.976 113.476C302.976 113.476 316.734 116.101 318.589 116.101C320.444 116.101 324.464 114.557 328.174 113.321C331.884 112.086 334.358 112.077 334.358 112.077C334.358 112.077 336.831 112.086 340.541 113.321C344.251 114.557 348.271 116.101 350.126 116.101C351.981 116.101 365.739 113.476 365.739 113.476C370.841 105.189 385.681 106.527 385.681 106.527C380.425 101.277 369.295 104.365 369.295 104.365" fill="url(#paint3_linear)"/>
<mask id="mask0" mask-type="alpha" maskUnits="userSpaceOnUse" x="283" y="90" width="103" height="27">
<path fill-rule="evenodd" clip-rule="evenodd" d="M369.295 104.365L356.618 90H334.358H312.097L299.42 104.365C299.42 104.365 288.29 101.277 283.034 106.527C283.034 106.527 297.874 105.189 302.976 113.476C302.976 113.476 316.734 116.101 318.589 116.101C320.444 116.101 324.464 114.557 328.174 113.321C331.884 112.086 334.358 112.077 334.358 112.077C334.358 112.077 336.831 112.086 340.541 113.321C344.251 114.557 348.271 116.101 350.126 116.101C351.981 116.101 365.739 113.476 365.739 113.476C370.841 105.189 385.681 106.527 385.681 106.527C380.425 101.277 369.295 104.365 369.295 104.365" fill="white"/>
</mask>
<g mask="url(#mask0)">
</g>
<path d="M226.68 168.604H212.944V182.68H205.736V168.604H192V162.076H205.736V148H212.944V162.076H226.68V168.604Z" fill="black"/>
<defs>
<linearGradient id="paint0_linear" x1="10.0776" y1="162.219" x2="140.361" y2="162.219" gradientUnits="userSpaceOnUse">
<stop stop-color="#4A9EA1"/>
</linearGradient>
<linearGradient id="paint1_linear" x1="14.5907" y1="162.21" x2="135.848" y2="162.21" gradientUnits="userSpaceOnUse">
<stop stop-color="#63D3D7"/>
</linearGradient>
<linearGradient id="paint2_linear" x1="272.522" y1="235.874" x2="396.193" y2="235.874" gradientUnits="userSpaceOnUse">
<stop stop-color="#FF5500"/>
<stop offset="0.409877" stop-color="#FF5500"/>
<stop offset="0.581981" stop-color="#FF2000"/>
<stop offset="1" stop-color="#FF2000"/>
</linearGradient>
<linearGradient id="paint3_linear" x1="285.239" y1="116.005" x2="385.681" y2="116.005" gradientUnits="userSpaceOnUse">
<stop stop-color="#FF452A"/>
<stop offset="1" stop-color="#FF2000"/>
</linearGradient>
</defs>
</svg>
